<?xml version="1.0" encoding="utf-8"?>
<!-- Generator: Adobe Illustrator 16.0.0, SVG Export Plug-In . SVG Version: 6.00 Build 0)  -->
<!DOCTYPE svg PUBLIC "-//W3C//DTD SVG 1.1//EN" "http://www.w3.org/Graphics/SVG/1.1/DTD/svg11.dtd">
<svg version="1.1" id="Layer_1" xmlns="http://www.w3.org/2000/svg" xmlns:xlink="http://www.w3.org/1999/xlink" x="0px" y="0px"
	 width="566.93px" height="566.93px" viewBox="0 0 566.93 566.93" enable-background="new 0 0 566.93 566.93" xml:space="preserve">
<circle stroke="#000000" stroke-miterlimit="10" cx="59.93" cy="152.319" r="43.715"/>
<circle stroke="#000000" stroke-miterlimit="10" cx="59.93" cy="283.466" r="43.715"/>
<circle stroke="#000000" stroke-miterlimit="10" cx="59.93" cy="414.611" r="43.715"/>
<path stroke="#000000" stroke-miterlimit="10" d="M550.715,174.5c0,11.894-9.643,21.536-21.535,21.536h-354.44
	c-11.894,0-21.535-9.642-21.535-21.536V130.14c0-11.894,9.642-21.536,21.535-21.536h354.44c11.893,0,21.535,9.642,21.535,21.536
	V174.5z"/>
<path stroke="#000000" stroke-miterlimit="10" d="M550.715,305.646c0,11.894-9.643,21.534-21.535,21.534h-354.44
	c-11.894,0-21.535-9.641-21.535-21.534v-44.36c0-11.894,9.642-21.536,21.535-21.536h354.44c11.893,0,21.535,9.642,21.535,21.536
	V305.646z"/>
<path stroke="#000000" stroke-miterlimit="10" d="M550.715,436.791c0,11.893-9.643,21.535-21.535,21.535h-354.44
	c-11.894,0-21.535-9.643-21.535-21.535V392.43c0-11.893,9.642-21.535,21.535-21.535h354.44c11.893,0,21.535,9.643,21.535,21.535
	V436.791z"/>
</svg>
