<?xml version="1.0" encoding="utf-8"?>
<!-- Generator: Adobe Illustrator 16.0.0, SVG Export Plug-In . SVG Version: 6.00 Build 0)  -->
<!DOCTYPE svg PUBLIC "-//W3C//DTD SVG 1.1//EN" "http://www.w3.org/Graphics/SVG/1.1/DTD/svg11.dtd">
<svg version="1.1" id="Layer_1" xmlns="http://www.w3.org/2000/svg" xmlns:xlink="http://www.w3.org/1999/xlink" x="0px" y="0px"
	 width="566.93px" height="566.93px" viewBox="0 0 566.93 566.93" enable-background="new 0 0 566.93 566.93" xml:space="preserve">
<path fill="none" stroke="#000000" stroke-width="21" stroke-miterlimit="10" d="M323.531,283.458v0.015
	c0,165.528-25.698,229.035-116.276,229.035c-88.755,0-116.262-65.507-116.262-229.035v-0.015H323.531z"/>
<path stroke="#000000" stroke-width="21" stroke-miterlimit="10" d="M323.531,283.458H90.993
	C90.993,91.333,137,54.421,207.255,54.421C283.465,54.421,323.531,93,323.531,283.458z"/>
<g>
	<g>
		<polygon stroke="#000000" stroke-width="24" stroke-miterlimit="10" points="278.379,419.654 273.629,411.426 268.878,403.191 
			278.379,403.191 287.883,403.191 283.134,411.426 		"/>
		<g>
			<path fill="none" stroke="#000000" stroke-width="24" stroke-miterlimit="10" d="M377.576,503.91
				c54.367,0,98.361-43.996,98.361-98.361"/>
			<path fill="none" stroke="#000000" stroke-width="24" stroke-miterlimit="10" d="M377.576,305.518
				c54.367,0,98.361,44.74,98.361,100.031"/>
			<path fill="none" stroke="#000000" stroke-width="24" stroke-miterlimit="10" d="M277.546,403.879
				c0-54.365,44.739-98.361,100.03-98.361"/>
		</g>
	</g>
	<g>
		
			<line fill="none" stroke="#000000" stroke-width="24" stroke-miterlimit="10" x1="359.563" y1="409.883" x2="448.279" y2="409.883"/>
		
			<line fill="none" stroke="#000000" stroke-width="24" stroke-miterlimit="10" x1="371.574" y1="409.883" x2="371.574" y2="331.523"/>
	</g>
</g>
</svg>
