<?xml version="1.0" encoding="utf-8"?>
<!-- Generator: Adobe Illustrator 16.0.0, SVG Export Plug-In . SVG Version: 6.00 Build 0)  -->
<!DOCTYPE svg PUBLIC "-//W3C//DTD SVG 1.1//EN" "http://www.w3.org/Graphics/SVG/1.1/DTD/svg11.dtd">
<svg version="1.1" id="Layer_1" xmlns="http://www.w3.org/2000/svg" xmlns:xlink="http://www.w3.org/1999/xlink" x="0px" y="0px"
	 width="566.93px" height="566.93px" viewBox="0 0 566.93 566.93" enable-background="new 0 0 566.93 566.93" xml:space="preserve">
<path stroke="#000000" stroke-miterlimit="10" d="M536.029,442.619c0,6.627-5.373,12-12,12H42.9c-6.627,0-12-5.373-12-12V124.311
	c0-6.627,5.373-12,12-12h481.129c6.627,0,12,5.373,12,12V442.619z"/>
<g>
	<circle fill="#FFFFFF" stroke="#000000" stroke-miterlimit="10" cx="184.497" cy="227.502" r="52.088"/>
	<path fill="#FFFFFF" stroke="#000000" stroke-miterlimit="10" d="M283.465,381.611c0-54.657-44.31-98.966-98.967-98.966
		c-54.658,0-98.967,44.309-98.968,98.966H283.465z"/>
</g>
<g>
	<path fill="#FFFFFF" stroke="#000000" stroke-miterlimit="10" d="M486.667,238.267c0,6.339-4.547,11.477-10.155,11.477H301.693
		c-5.608,0-10.155-5.138-10.155-11.477l0,0c0-6.338,4.547-11.477,10.155-11.477h174.818
		C482.12,226.79,486.667,231.928,486.667,238.267L486.667,238.267z"/>
	<path fill="#FFFFFF" stroke="#000000" stroke-miterlimit="10" d="M486.667,267.036c0,6.339-4.547,11.477-10.155,11.477H301.693
		c-5.608,0-10.155-5.138-10.155-11.477l0,0c0-6.338,4.547-11.477,10.155-11.477h174.818
		C482.12,255.559,486.667,260.697,486.667,267.036L486.667,267.036z"/>
	<path fill="#FFFFFF" stroke="#000000" stroke-miterlimit="10" d="M486.667,296.181c0,6.339-4.547,11.478-10.155,11.478H301.693
		c-5.608,0-10.155-5.139-10.155-11.478l0,0c0-6.339,4.547-11.477,10.155-11.477h174.818
		C482.12,284.704,486.667,289.842,486.667,296.181L486.667,296.181z"/>
</g>
</svg>
